<?xml version="1.0" encoding="UTF-8"?>
<svg id="katman_2" data-name="katman 2" xmlns="http://www.w3.org/2000/svg" viewBox="0 0 70.12 71.29">
  <defs>
    <style>
      .cls-1 {
        stroke-linejoin: round;
      }

      .cls-1, .cls-2 {
        fill: none;
        stroke: #78350f;
        stroke-linecap: round;
        stroke-width: 1.5px;
      }

      .cls-3 {
        fill: #15803d;
        isolation: isolate;
        opacity: .5;
        stroke-width: 0px;
      }
    </style>
  </defs>
  <g id="katman_1" data-name="katman 1">
    <g id="_2" data-name="2">
      <path class="cls-3" d="M48.17,3.79c8.1-8.1,21.95-2.36,21.95,9.09v24.25c0,7.1-5.76,12.86-12.86,12.86h-24.25c-11.46,0-17.2-13.85-9.09-21.95L48.17,3.79Z"/>
      <g>
        <path class="cls-1" d="M57.12,70.54L.75,52.93M57.12,70.54H.75v-17.62l56.37,17.62ZM57.12,70.54v-28.19c0-15.57-12.62-28.19-28.19-28.19-2.8,0-5.5.41-8.05,1.17C9.24,18.8.75,29.59.75,42.36v10.57l56.37,17.62Z"/>
        <path class="cls-2" d="M43.03,31.79v3.52"/>
        <path class="cls-2" d="M28.94,28.26v3.52"/>
        <path class="cls-2" d="M14.84,24.74v3.52"/>
      </g>
    </g>
  </g>
</svg>