<?xml version="1.0" encoding="UTF-8"?>
<svg id="katman_2" data-name="katman 2" xmlns="http://www.w3.org/2000/svg" viewBox="0 0 101.38 69.75">
  <defs>
    <style>
      .cls-1 {
        fill: none;
        stroke: #78350f;
        stroke-linecap: round;
        stroke-linejoin: round;
        stroke-width: 1.5px;
      }

      .cls-2 {
        fill: #0369a1;
        isolation: isolate;
        opacity: .5;
        stroke-width: 0px;
      }
    </style>
  </defs>
  <g id="katman_1" data-name="katman 1">
    <g id="_1" data-name="1">
      <g>
        <path class="cls-1" d="M13.66,13.85h36.42s-3.04,45.69-18.21,45.69c-7.41,0-11.93-10.9-14.61-22.06-2.81-11.68-3.6-23.63-3.6-23.63Z"/>
        <path class="cls-1" d="M50.08,13.85s3.18-3.39,5.81-3.45c5.17-.12,6.13,3.45,6.13,3.45,1.01,2.1,1.82,7.56-3.03,12.6-4.86,5.04-10.29,9.45-12.51,11.03"/>
        <path class="cls-1" d="M13.66,13.85s-3.31-3.43-6.02-3.45c-5.17-.04-6.13,3.45-6.13,3.45-1.01,2.1-1.82,7.56,3.04,12.6,4.86,5.04,10.49,9.45,12.71,11.03"/>
        <path class="cls-1" d="M19.73,69c0-6.3,12.14-9.45,12.14-9.45,0,0,12.14,3.15,12.14,9.45h-24.28Z"/>
      </g>
      <path class="cls-2" d="M31.3,22.3C23.07,14.07,28.9,0,40.53,0h47.76c11.64,0,17.46,14.07,9.23,22.3l-23.88,23.88c-5.1,5.1-13.37,5.1-18.47,0l-23.88-23.88Z"/>
    </g>
  </g>
</svg>